<?xml version="1.0" encoding="UTF-8" standalone="no"?>
<!-- Created with Inkscape (http://www.inkscape.org/) -->

<svg
   xmlns:dc="http://purl.org/dc/elements/1.1/"
   xmlns:cc="http://creativecommons.org/ns#"
   xmlns:rdf="http://www.w3.org/1999/02/22-rdf-syntax-ns#"
   xmlns:svg="http://www.w3.org/2000/svg"
   xmlns="http://www.w3.org/2000/svg"
   xmlns:sodipodi="http://sodipodi.sourceforge.net/DTD/sodipodi-0.dtd"
   xmlns:inkscape="http://www.inkscape.org/namespaces/inkscape"
   id="svg3979"
   version="1.1"
   inkscape:version="0.48.4 r9939"
   width="212.6"
   height="212.6"
   xml:space="preserve"
   sodipodi:docname="spielstart_logo.ai"><metadata
     id="metadata3985"><rdf:RDF><cc:Work
         rdf:about=""><dc:format>image/svg+xml</dc:format><dc:type
           rdf:resource="http://purl.org/dc/dcmitype/StillImage" /><dc:title></dc:title></cc:Work></rdf:RDF></metadata><defs
     id="defs3983"><clipPath
       clipPathUnits="userSpaceOnUse"
       id="clipPath3993"><path
         d="m 6.334,25.414 163.746,0 0,109.954 -163.746,0 0,-109.954 z"
         id="path3995" /></clipPath><clipPath
       clipPathUnits="userSpaceOnUse"
       id="clipPath4005"><path
         d="m 0,170.08 170.08,0 L 170.08,0 0,0 0,170.08 z"
         id="path4007" /></clipPath></defs><sodipodi:namedview
     pagecolor="#ffffff"
     bordercolor="#666666"
     borderopacity="1"
     objecttolerance="10"
     gridtolerance="10"
     guidetolerance="10"
     inkscape:pageopacity="0"
     inkscape:pageshadow="2"
     inkscape:window-width="798"
     inkscape:window-height="877"
     id="namedview3981"
     showgrid="false"
     inkscape:zoom="2.8410159"
     inkscape:cx="106.3"
     inkscape:cy="106.3"
     inkscape:window-x="800"
     inkscape:window-y="0"
     inkscape:window-maximized="0"
     inkscape:current-layer="g3987" /><g
     id="g3987"
     inkscape:groupmode="layer"
     inkscape:label="spielstart_logo"
     transform="matrix(1.25,0,0,-1.25,0,212.6)"><g
       id="g3989"><g
         id="g3991"
         clip-path="url(#clipPath3993)"><g
           id="g3997"
           transform="translate(102.7461,130.2793)"><path
             d="m 0,0 c 0,0 -6.902,4.406 -6.902,-3.783 l 0,-78.104 c 0,0 0,-8.189 6.902,-3.783 l 60.198,38.429 c 0,0 6.902,4.407 0,8.813 L 0,0 z"
             style="fill:#1c1b18;fill-opacity:1;fill-rule:nonzero;stroke:none"
             id="path3999" /></g></g></g><g
       id="g4001"><g
         id="g4003"
         clip-path="url(#clipPath4005)"><g
           id="g4009"
           transform="translate(112.3447,87.8555)"><path
             d="m 0,0 0,4.52 c 0,0.087 -0.065,0.152 -0.153,0.152 l -9.629,0 c -0.087,0 -0.154,-0.065 -0.154,-0.152 L -9.936,0 0,0 z m -0.153,7.555 c 1.681,0 3.057,-1.354 3.057,-3.035 l 0,-12.687 -2.904,0 0,5.284 -9.936,0 0,-5.284 -2.881,0 0,12.687 c 0,1.681 1.353,3.035 3.035,3.035 l 9.629,0 z"
             style="fill:#ffffff;fill-opacity:1;fill-rule:nonzero;stroke:none"
             id="path4011" /></g><g
           id="g4013"
           transform="translate(130.3818,87.9639)"><path
             d="m 0,0 c 0.089,0 0.153,0.065 0.153,0.153 l 0,4.237 C 0.153,4.477 0.089,4.542 0,4.542 l -9.628,0 c -0.088,0 -0.153,-0.065 -0.153,-0.152 l 0,-4.237 C -9.781,0.065 -9.716,0 -9.628,0 L 0,0 z M 3.058,0.153 C 3.058,-1.506 1.683,-2.882 0,-2.882 l -0.852,0 3.91,-4.651 0,-0.742 -3.144,0 -4.543,5.393 -5.087,0 -0.065,0 0,-5.393 -2.883,0 0,15.7 12.664,0 c 1.683,0 3.058,-1.376 3.058,-3.035 l 0,-4.237 z"
             style="fill:#ffffff;fill-opacity:1;fill-rule:nonzero;stroke:none"
             id="path4015" /></g><g
           id="g4017"
           transform="translate(150.9102,95.4102)"><path
             d="m 0,0 0,-2.883 -6.398,0 0,-12.839 -2.905,0 0,12.839 -6.42,0 0,2.883 L 0,0 z"
             style="fill:#ffffff;fill-opacity:1;fill-rule:nonzero;stroke:none"
             id="path4019" /></g><g
           id="g4021"
           transform="translate(26.3921,88.0732)"><path
             d="m 0,0 -2.86,0 0,0.546 c 0,0.088 -0.066,0.153 -0.154,0.153 l -6.834,0 c -0.088,0 -0.153,-0.065 -0.153,-0.153 l 0,-1.747 c 0,-0.087 0.065,-0.131 0.153,-0.131 l 6.834,0 C -1.332,-1.332 0,-2.686 0,-4.345 l 0,-1.747 c 0,-1.66 -1.332,-3.013 -3.014,-3.013 l -6.834,0 c -1.66,0 -3.013,1.353 -3.013,3.013 l 0,0.546 2.86,0 0,-0.546 c 0,-0.087 0.065,-0.153 0.153,-0.153 l 6.834,0 c 0.088,0 0.154,0.066 0.154,0.153 l 0,1.747 c 0,0.087 -0.066,0.131 -0.154,0.131 l -6.834,0 c -1.66,0 -3.013,1.354 -3.013,3.013 l 0,1.747 c 0,1.66 1.353,3.014 3.013,3.014 l 6.834,0 C -1.332,3.56 0,2.206 0,0.546 L 0,0 z"
             style="fill:#1c1b18;fill-opacity:1;fill-rule:nonzero;stroke:none"
             id="path4023" /></g><g
           id="g4025"
           transform="translate(38.4463,88.6191)"><path
             d="m 0,0 c 0,0.088 -0.066,0.153 -0.153,0.153 l -6.835,0 C -7.075,0.153 -7.141,0.088 -7.141,0 l 0,-6.638 c 0,-0.087 0.066,-0.153 0.153,-0.153 l 6.835,0 C -0.066,-6.791 0,-6.725 0,-6.638 L 0,0 z m 2.861,0 0,-6.638 c 0,-1.66 -1.354,-3.013 -3.014,-3.013 l -6.988,0 0,-5.022 -2.86,0 0,17.687 9.848,0 C 1.507,3.014 2.861,1.66 2.861,0"
             style="fill:#1c1b18;fill-opacity:1;fill-rule:nonzero;stroke:none"
             id="path4027" /></g><path
           d="m 43.338,91.633 2.86,0 0,-12.665 -2.86,0 0,12.665 z m 2.861,1.266 -2.86,0 0,2.882 2.86,0 0,-2.882 z"
           style="fill:#1c1b18;fill-opacity:1;fill-rule:nonzero;stroke:none"
           id="path4029" /><g
           id="g4031"
           transform="translate(58.6235,86.7412)"><path
             d="m 0,0 0,1.878 c 0,0.088 -0.065,0.153 -0.153,0.153 l -6.835,0 C -7.075,2.031 -7.14,1.966 -7.14,1.878 L -7.14,0 0,0 z m 2.86,1.878 0,-4.76 -10,0 0,-1.878 c 0,-0.087 0.065,-0.153 0.152,-0.153 l 9.848,0 0,-2.86 -9.848,0 c -1.659,0 -3.013,1.353 -3.013,3.013 l 0,6.638 c 0,1.66 1.354,3.014 3.013,3.014 l 6.835,0 c 1.66,0 3.013,-1.354 3.013,-3.014"
             style="fill:#1c1b18;fill-opacity:1;fill-rule:nonzero;stroke:none"
             id="path4033" /></g><g
           id="g4035"
           transform="translate(66.5508,95.7813)"><path
             d="m 0,0 0,-13.8 c 0,-0.087 0.044,-0.153 0.131,-0.153 l 2.556,0 0,-2.86 -2.556,0 c -1.659,0 -3.013,1.353 -3.013,3.013 L -2.882,0 0,0 z"
             style="fill:#1c1b18;fill-opacity:1;fill-rule:nonzero;stroke:none"
             id="path4037" /></g><g
           id="g4039"
           transform="translate(83.3213,88.0732)"><path
             d="m 0,0 -2.861,0 0,0.546 c 0,0.088 -0.065,0.153 -0.153,0.153 l -6.835,0 c -0.087,0 -0.152,-0.065 -0.152,-0.153 l 0,-1.747 c 0,-0.087 0.065,-0.131 0.152,-0.131 l 6.835,0 C -1.332,-1.332 0,-2.686 0,-4.345 l 0,-1.747 c 0,-1.66 -1.332,-3.013 -3.014,-3.013 l -6.835,0 c -1.659,0 -3.012,1.353 -3.012,3.013 l 0,0.546 2.86,0 0,-0.546 c 0,-0.087 0.065,-0.153 0.152,-0.153 l 6.835,0 c 0.088,0 0.153,0.066 0.153,0.153 l 0,1.747 c 0,0.087 -0.065,0.131 -0.153,0.131 l -6.835,0 c -1.659,0 -3.012,1.354 -3.012,3.013 l 0,1.747 c 0,1.66 1.353,3.014 3.012,3.014 l 6.835,0 C -1.332,3.56 0,2.206 0,0.546 L 0,0 z"
             style="fill:#1c1b18;fill-opacity:1;fill-rule:nonzero;stroke:none"
             id="path4041" /></g><g
           id="g4043"
           transform="translate(88.4102,88.7725)"><path
             d="m 0,0 0,-6.791 c 0,-0.087 0.065,-0.153 0.152,-0.153 l 4.783,0 0,-2.861 -4.783,0 c -1.68,0 -3.012,1.354 -3.012,3.014 l 0,13.8 2.86,0 0,-4.149 4.935,0 L 4.935,0 0,0 z"
             style="fill:#1c1b18;fill-opacity:1;fill-rule:nonzero;stroke:none"
             id="path4045" /></g></g></g></g></svg>